<?xml version="1.0" standalone="no"?>
<!DOCTYPE svg PUBLIC "-//W3C//DTD SVG 20010904//EN"
 "http://www.w3.org/TR/2001/REC-SVG-20010904/DTD/svg10.dtd">
<svg version="1.0" xmlns="http://www.w3.org/2000/svg"
 width="512.000000pt" height="512.000000pt" viewBox="0 0 512.000000 512.000000"
 preserveAspectRatio="xMidYMid meet">
<metadata>
Created by potrace 1.11, written by Peter Selinger 2001-2013
</metadata>
<g transform="translate(0.000000,512.000000) scale(0.100000,-0.100000)"
fill="#000000" stroke="none">
<path d="M0 2560 l0 -2560 2560 0 2560 0 0 2560 0 2560 -2560 0 -2560 0 0
-2560z m5100 0 l0 -2540 -2540 0 -2540 0 0 2540 0 2540 2540 0 2540 0 0 -2540z"/>
<path d="M256 3920 c-3 -5 0 -2711 2 -2720 1 -3 197 -4 435 -4 400 1 565 6
678 19 42 5 58 8 144 21 79 12 268 65 343 96 154 63 249 125 358 233 186 183
288 413 328 743 13 109 14 403 2 507 -62 509 -297 829 -727 988 -52 20 -106
38 -120 40 -13 3 -51 12 -84 20 -33 9 -78 18 -100 22 -22 3 -67 10 -100 15
-33 5 -116 12 -185 16 -146 8 -971 11 -974 4z m1074 -394 c277 -50 401 -104
530 -235 60 -60 85 -95 122 -171 80 -163 103 -291 103 -565 0 -176 -6 -260
-25 -324 -5 -17 -7 -31 -5 -31 8 0 -58 -176 -82 -220 -111 -199 -299 -325
-554 -370 -35 -6 -75 -14 -89 -17 -14 -2 -161 -7 -327 -10 l-303 -5 0 982 0
982 298 -5 c163 -3 313 -8 332 -11z"/>
<path d="M2558 3919 c-9 -6 -13 -174 -9 -356 l1 -32 461 0 c254 0 463 -2 466
-5 3 -3 6 -528 6 -1166 0 -1054 2 -1160 16 -1161 20 -1 413 -1 424 0 4 1 7
525 7 1166 l0 1165 23 0 c12 1 222 2 467 3 l445 2 1 193 c1 132 -3 192 -10
193 -62 4 -2291 2 -2298 -2z"/>
</g>
</svg>
